# xmcd CD database file
#
# Track frame offsets:
#	200
#	11892
#	22162
#	36990
#	46452
#	58687
#	69845
#	79972
#	89207
#	97990
#	109225
#	118520
#
# Disc length: 1705 seconds
#
# Revision: 0
# Processed by: cddbd v1.5.2PL0 Copyright (c) Steve Scherf et al.
# Submitted via: CDex 1.51
#
DISCID=a606a70c
DTITLE=Webb Pierce - Greatest Hits and Finest Performances
DYEAR=1900
DGENRE=Country
TTITLE0=Slowly
TTITLE1=There Stands the Glass
TTITLE2=Wondering
TTITLE3=Honky Tonk Song
TTITLE4=Yes, I Know Why
TTITLE5=Why Baby Why
TTITLE6=Fool, Fool, Fool
TTITLE7=I Ain't Never
TTITLE8=I'm Tired
TTITLE9=More and More
TTITLE10=Love, Love, Love
TTITLE11=Holiday for Love
EXTD=
EXTT0=
EXTT1=
EXTT2=
EXTT3=
EXTT4=
EXTT5=
EXTT6=
EXTT7=
EXTT8=
EXTT9=
EXTT10=
EXTT11=
PLAYORDER=
